<?xml version="1.0" encoding="utf-8"?>
<!DOCTYPE svg PUBLIC "-//W3C//DTD SVG 1.1//EN" "http://www.w3.org/Graphics/SVG/1.1/DTD/svg11.dtd">
<svg version="1.1" xmlns="http://www.w3.org/2000/svg" xmlns:xlink="http://www.w3.org/1999/xlink" x="0px" y="0px"
	 width="310.146px" height="154.07px" viewBox="0 0 310.146 154.07" enable-background="new 0 0 310.146 154.07"
	 xml:space="preserve">
	<rect x="-41.657" y="-59.93" display="none" width="1000" height="300"/>
	<path fill="#ffffff" d="M132.048,29.986c0,0,65.489,49.193,69.755,52.403c3.711,2.792,3.845,5.138-0.408,8.294
		c-4.424,3.281-79.871,63.387-79.871,63.387s-73.496,0-83.905,0c-44.111,0-58.063-80.823,5.999-84.382
		c-7.475-40.216,41.725-61.604,66.725-58.847c0,48.847,0,72.936,0,81.477c0,16.55,21.527,16.828,21.527,0.544
		C131.871,82.185,132.048,29.986,132.048,29.986z"/>
	<path fill="#ffffff" d="M144.679,10.606c48.58,35.559,75.361,55.489,85.326,64.743c9.965,9.254,8.854,15.338-0.043,22.811
		c-8.897,7.475-75.496,55.91-75.496,55.91s70.888,0,109.973,0c58.078,0,62.994-87.584,2.135-102.532
		C251.358-7.363,168.879-7.575,144.679,10.606z"/>
</svg>
