<?xml version="1.0" encoding="utf-8"?>
<!DOCTYPE svg PUBLIC "-//W3C//DTD SVG 1.1//EN" "http://www.w3.org/Graphics/SVG/1.1/DTD/svg11.dtd">
<svg version="1.1" id="Layer_1" xmlns="http://www.w3.org/2000/svg" xmlns:xlink="http://www.w3.org/1999/xlink" x="0px" y="0px"
	 width="575.667px" height="109.469px" viewBox="0 21.756 575.667 109.469" enable-background="new 0 21.756 575.667 109.469"
	 xml:space="preserve">
<path fill="#FFFFFF" d="M0.159,29.751h22.754c31.365,0,45.51,20.295,45.51,50.431c0,30.134-14.145,51.044-45.51,51.044H0.159V29.751
	z M22.298,126.92c28.905,0,40.897-19.986,40.897-46.738S51.203,34.056,22.298,34.056H5.079v92.863H22.298z"/>
<path fill="#FFFFFF" d="M81.659,57.733h3.998l0.615,13.837h0.308c4.92-8.917,11.992-15.682,20.91-15.682
	c2.46,0,4.612,0.308,7.072,1.537l-1.23,4.306c-2.46-0.922-3.69-1.229-6.457-1.229c-6.765,0-14.76,5.228-20.603,19.681v51.044H81.66
	L81.659,57.733L81.659,57.733z"/>
<path fill="#FFFFFF" d="M142.913,55.888c16.912,0,27.674,11.992,27.674,33.824c0,1.537,0,3.075-0.307,4.92h-54.12
	c0,19.681,11.377,34.133,28.905,34.133c8.303,0,14.76-2.769,20.295-6.766l2.152,3.997c-5.535,3.383-11.686,7.072-22.756,7.072
	c-18.449,0-33.516-14.452-33.516-38.438C111.24,70.648,126.616,55.888,142.913,55.888z M165.975,90.635
	c0-20.294-9.225-30.44-23.063-30.44c-13.223,0-25.215,11.685-26.752,30.44H165.975z"/>
<path fill="#FFFFFF" d="M223.645,85.408c0.307-11.992-2.768-25.214-18.143-25.214c-10.455,0-19.373,5.228-23.984,8.917l-2.461-3.689
	c4.613-3.383,14.76-9.532,26.752-9.532c17.221,0,22.447,12.914,22.447,27.675v47.662h-3.996l-0.615-9.841h-0.309
	c-7.688,6.15-16.912,11.686-26.752,11.686c-11.377,0-21.217-5.842-21.217-19.833C175.368,96.785,190.436,89.098,223.645,85.408z
	 M196.893,128.765c8.916,0,16.912-4.306,26.752-12.607V89.405c-32.287,3.689-43.357,11.069-43.357,23.677
	C180.288,124.46,187.975,128.765,196.893,128.765z"/>
<path fill="#FFFFFF" d="M244.553,57.733h3.996l0.615,11.685h0.309c6.764-7.688,15.375-13.529,23.369-13.529
	c11.992,0,17.833,6.149,20.295,15.375c8.608-9.533,16.911-15.375,25.214-15.375c14.451,0,21.832,8.917,21.832,27.981v47.354h-4.611
	V84.485c0-16.297-5.535-24.292-17.527-24.292c-7.379,0-14.76,4.92-23.369,14.76v56.271h-4.613V84.485
	c0-16.297-5.533-24.292-17.525-24.292c-7.074,0-14.76,4.92-23.371,14.76v56.271h-4.611V57.733H244.553z"/>
<path fill="#FFFFFF" d="M339.416,30.366h13.531l16.297,54.427c3.535,11.992,5.996,21.524,9.686,33.363h0.615
	c3.689-11.839,6.303-21.371,9.686-33.363l16.145-54.427h13.068l-31.98,100.858H371.55L339.416,30.366z"/>
<path fill="#FFFFFF" d="M422.408,32.98c0-4.92,3.844-8.149,8.764-8.149s8.764,3.229,8.764,8.149c0,4.766-3.844,8.147-8.764,8.147
	S422.408,37.746,422.408,32.98z M424.712,56.503h12.607v74.722h-12.607V56.503z"/>
<path fill="#FFFFFF" d="M479.617,54.658c8.607,0,14.299,3.229,20.908,8.61l-0.613-12.762V21.756h12.76v109.469h-10.455l-1.076-8.765
	h-0.461c-5.842,5.688-13.838,10.608-22.602,10.608c-18.756,0-30.902-14.146-30.902-39.052
	C447.173,69.726,462.548,54.658,479.617,54.658z M480.843,122.461c6.92,0,12.916-3.383,19.066-10.301V73.108
	c-6.305-5.688-11.994-7.841-18.143-7.841c-11.992,0-21.525,11.53-21.525,28.597C460.244,111.698,467.777,122.461,480.843,122.461z"
	/>
<path fill="#FFFFFF" d="M526.246,114.313c6.459,5.228,13.066,8.917,21.986,8.917c9.84,0,14.76-5.229,14.76-11.686
	c0-7.688-8.918-11.069-17.066-14.145c-10.607-3.844-22.293-8.917-22.293-21.525c0-11.992,9.533-21.217,25.676-21.217
	c9.379,0,17.527,3.844,23.217,8.456l-5.996,7.995c-5.074-3.844-10.455-6.611-17.066-6.611c-9.379,0-13.684,5.074-13.684,10.763
	c0,6.919,8.148,9.687,16.605,12.915c10.762,3.998,22.754,8.457,22.754,22.602c0,12.146-9.686,22.293-27.367,22.293
	c-10.609,0-20.756-4.458-27.828-10.301L526.246,114.313z"/>
</svg>
